<svg width="32" height="32" viewBox="0 0 32 32" fill="none" xmlns="http://www.w3.org/2000/svg">
<path d="M22 12C22 10.4087 21.3679 8.88258 20.2426 7.75736C19.1174 6.63214 17.5913 6 16 6C14.4087 6 12.8826 6.63214 11.7574 7.75736C10.6321 8.88258 10 10.4087 10 12C10 19 7 21 7 21H25C25 21 22 19 22 12Z" stroke="#A7A7A7" stroke-width="2" stroke-linecap="round" stroke-linejoin="round"/>
<path d="M17.73 25C17.5542 25.3031 17.3019 25.5547 16.9982 25.7295C16.6946 25.9044 16.3504 25.9965 16 25.9965C15.6496 25.9965 15.3054 25.9044 15.0018 25.7295C14.6982 25.5547 14.4458 25.3031 14.27 25" stroke="#A7A7A7" stroke-width="2" stroke-linecap="round" stroke-linejoin="round"/>
</svg>
