<?xml version="1.0" encoding="utf-8"?><svg viewBox="0 0 372 372" xmlns="http://www.w3.org/2000/svg" xmlns:xlink="http://www.w3.org/1999/xlink"><style>:root>svg{display:none}:root>svg:target{display:block}</style><svg fill="none" viewBox="0 0 8 14" id="arrow-right-black" xmlns="http://www.w3.org/2000/svg"><path d="M1 1l6 6-6 6" stroke="#222" stroke-linecap="round"/></svg><svg fill="none" viewBox="0 0 8 14" id="arrow-right-grey" xmlns="http://www.w3.org/2000/svg"><path d="M1 1l6 6-6 6" stroke="#767676" stroke-linecap="round"/></svg><svg fill="none" viewBox="0 0 32 32" id="bell" xmlns="http://www.w3.org/2000/svg"><path d="M22 12a6 6 0 10-12 0c0 7-3 9-3 9h18s-3-2-3-9zM17.73 25a1.999 1.999 0 01-3.46 0" stroke="#A7A7A7" stroke-width="2" stroke-linecap="round" stroke-linejoin="round"/></svg><svg fill="none" viewBox="0 0 32 32" id="check-false" xmlns="http://www.w3.org/2000/svg"><rect width="32" height="32" rx="16" fill="red" fill-opacity=".12"/><path d="M23 10.41L21.59 9 16 14.59 10.41 9 9 10.41 14.59 16 9 21.59 10.41 23 16 17.41 21.59 23 23 21.59 17.41 16 23 10.41z" fill="red"/></svg><svg fill="none" viewBox="0 0 32 32" id="check-true" xmlns="http://www.w3.org/2000/svg"><rect width="32" height="32" rx="16" fill="#E7F2FF"/><path d="M12.795 19.875l-4.17-4.17-1.42 1.41 5.59 5.59 12-12-1.41-1.41-10.59 10.58z" fill="#6A9AD2"/></svg><svg viewBox="0 0 371.23 371.23" id="close" xmlns="http://www.w3.org/2000/svg"><path d="M371.23 21.213L350.018 0 185.615 164.402 21.213 0 0 21.213l164.402 164.402L0 350.018l21.213 21.212 164.402-164.402L350.018 371.23l21.212-21.212-164.402-164.403z"/></svg><svg fill="none" viewBox="0 0 372 372" id="close-white" xmlns="http://www.w3.org/2000/svg"><g clip-path="url(#gclip0_7314_98448)"><path d="M371.23 21.213L350.018 0 185.615 164.402 21.213 0 0 21.213l164.402 164.402L0 350.018l21.213 21.212 164.402-164.402L350.018 371.23l21.212-21.212-164.402-164.403L371.23 21.213z" fill="#fff"/></g><defs><clipPath id="gclip0_7314_98448"><path fill="#fff" d="M0 0h371.23v371.23H0z"/></clipPath></defs></svg><svg fill="none" viewBox="0 0 6 6" id="dot-grey" xmlns="http://www.w3.org/2000/svg"><rect width="6" height="6" rx="3" fill="#767676"/></svg><svg fill="none" viewBox="0 0 32 32" id="download" xmlns="http://www.w3.org/2000/svg"><path fill-rule="evenodd" clip-rule="evenodd" d="M16.725 10.143V18h-1.483v-7.857L13.016 12.5 12 11.484 15.983 7 20 11.484 18.95 12.5l-2.225-2.357zM7 15v9h18v-9h-2v7H9v-7H7z" fill="#A7A7A7"/></svg><svg fill="none" viewBox="0 0 15 15" id="heart" xmlns="http://www.w3.org/2000/svg"><path d="M7.5 14.012l-1.088-.99C2.55 9.52 0 7.21 0 4.376A4.085 4.085 0 014.125.25C5.43.25 6.683.858 7.5 1.817A4.491 4.491 0 0110.875.25 4.085 4.085 0 0115 4.375c0 2.835-2.55 5.145-6.412 8.655l-1.088.982z" fill="#A7A7A7"/></svg><svg fill="none" viewBox="0 0 88 24" id="logo" xmlns="http://www.w3.org/2000/svg"><path d="M7.851 17.498h2.51c-.174 1.172-.692 2.113-1.555 2.823-.852.71-1.942 1.065-3.27 1.065-1.737 0-3.097-.543-4.08-1.63C.487 18.66 0 17.214 0 15.417c0-1.796.491-3.237 1.473-4.324.982-1.097 2.336-1.645 4.063-1.645 1.263 0 2.315.328 3.157.984.842.645 1.36 1.506 1.554 2.581H7.72c-.27-.946-.998-1.42-2.185-1.42-.993 0-1.753.36-2.282 1.082-.518.71-.777 1.624-.777 2.742 0 1.12.259 2.039.777 2.76.529.71 1.29 1.064 2.282 1.064.615 0 1.123-.15 1.522-.451.41-.312.674-.743.793-1.291zM22.012 9.656v2.114h-3.594v9.407h-2.412V11.77h-3.593V9.656h9.599zM28.69 14.82h.453l2.444-5.164h2.444l-5.536 11.52h-2.412l1.651-3.452-4.273-8.068h2.525l2.703 5.163zM45.164 19.03h1.65V24h-2.346v-2.823h-7.592V24h-2.347v-4.97h1.197c.918-1.624 1.376-3.904 1.376-6.84V9.656h8.062v9.375zm-2.348 0v-7.228h-3.48v1.017c0 2.689-.388 4.76-1.165 6.212h4.645zM49.556 9.656h2.25v8.035h.42l4.161-8.035h3.254v11.52h-2.267v-8.212h-.42l-4.258 8.213h-3.14V9.657zM64.337 21.177V9.657h2.412v4.501h2.735l2.12-4.502h2.494l-2.59 5.6 2.735 5.92h-2.492l-2.25-4.84h-2.752v4.84h-2.412zM85.556 21.177l-.94-3.114h-4.402l-.94 3.114h-2.379l3.675-11.52h3.74L88 21.176h-2.444zm-3.513-9.213l-1.214 4.001h3.14l-1.214-4.001h-.712zM38.158 0H35.63l-3.035 6.05h2.53L38.157 0z" fill="#222"/></svg><svg fill="none" viewBox="0 0 16 19" id="navigator" xmlns="http://www.w3.org/2000/svg"><path d="M.554 10.564L14.947.594a.592.592 0 01.905.703l-6.076 16.42c-.206.557-.963.606-1.163.076l-1.93-5.121a.568.568 0 00-.473-.368L.77 11.71c-.564-.062-.704-.807-.216-1.145z" fill="#A7A7A7"/></svg><svg fill="none" viewBox="0 0 17 17" id="search-pic" xmlns="http://www.w3.org/2000/svg"><path fill-rule="evenodd" clip-rule="evenodd" d="M1.7 7.65a5.95 5.95 0 1110.236 4.127.848.848 0 00-.159.159A5.95 5.95 0 011.7 7.65zm10.725 5.977a7.65 7.65 0 111.202-1.202l3.124 3.124a.85.85 0 01-1.202 1.202l-3.124-3.124z" fill="#A7A7A7"/></svg><svg fill="none" viewBox="0 0 32 32" id="speciality-swiper-pic" xmlns="http://www.w3.org/2000/svg"><circle cx="16" cy="16" r="16" fill="#F1F1F1"/><path d="M18 11h2.92l-4 5H24v-2h-2.92l4-5H18v2zM9 13v2h4l-6 8h9v-2h-5l6-8H9z" fill="#222"/></svg><svg fill="none" viewBox="0 0 32 32" id="speciality-swiper-pic2" xmlns="http://www.w3.org/2000/svg"><circle cx="16" cy="16" r="16" fill="#F1F1F1"/><path fill-rule="evenodd" clip-rule="evenodd" d="M16 10.236L21.528 13H10.472L16 10.236zM16 8l-8 4v3h16v-3l-8-4zm4 8h2v5h-2v-5zm3 6v2H9v-2h14zm-6-6v5h-2v-5h2zm-5 0h-2v5h2v-5z" fill="#222"/></svg><svg fill="none" viewBox="0 0 32 32" id="speciality-swiper-pic3" xmlns="http://www.w3.org/2000/svg"><circle cx="16" cy="16" r="16" fill="#F1F1F1"/><path d="M19 10h-9l4 6-4 5h9l4-5-4-6z" stroke="#222" stroke-width="2"/></svg><svg style="margin:auto;background:#fff" viewBox="0 0 100 100" preserveAspectRatio="xMidYMid" display="block" id="spinner" xmlns="http://www.w3.org/2000/svg"><circle cx="50" cy="50" r="32" stroke-width="8" stroke="#fe718d" stroke-dasharray="50.26548245743669 50.26548245743669" fill="none" stroke-linecap="round"><animateTransform attributeName="transform" type="rotate" repeatCount="indefinite" dur="1s" keyTimes="0;1" values="0 50 50;360 50 50"/></circle></svg><svg fill="none" viewBox="0 0 18 18" id="star-yellow" xmlns="http://www.w3.org/2000/svg"><path d="M9 12.953l4.635 2.797-1.23-5.273L16.5 6.93l-5.393-.457L9 1.5 6.893 6.473 1.5 6.93l4.095 3.547-1.23 5.273L9 12.953z" fill="#EFD967"/></svg><svg fill="none" viewBox="0 0 13 7" id="union" xmlns="http://www.w3.org/2000/svg"><path fill-rule="evenodd" clip-rule="evenodd" d="M0 0h13v1H0V0zm0 3h9v1H0V3zm5 3H0v1h5V6z" fill="#A7A7A7"/></svg></svg>